<?xml version="1.0" encoding="UTF-8"?>
<svg width="168px" height="191px" viewBox="0 0 168 191" version="1.1" xmlns="http://www.w3.org/2000/svg" xmlns:xlink="http://www.w3.org/1999/xlink">
    <!-- Generator: Sketch 52.5 (67469) - http://www.bohemiancoding.com/sketch -->
    <title>Group@2x</title>
    <desc>Created with Sketch.</desc>
    <defs>
        <linearGradient x1="50%" y1="3.70825958%" x2="50%" y2="100%" id="linearGradient-1">
            <stop stop-color="#2B0C5B" offset="0%"></stop>
            <stop stop-color="#09001A" offset="100%"></stop>
        </linearGradient>
    </defs>
    <g id="Page-1" stroke="none" stroke-width="1" fill="none" fill-rule="evenodd">
        <g id="Artboard-4" transform="translate(-6.000000, -3.000000)">
            <g id="Group" transform="translate(6.000000, 3.000000)">
                <polygon id="Path-3" fill="url(#linearGradient-1)" points="168 127 84 191 0 127 0 0 84 64 168 0"></polygon>
                <polygon id="Head-Base" fill="#FFFFFF" style="mix-blend-mode: overlay;" points="0 0 84 63.6666667 168 0 168 127.333333 84 191 0 127.333333"></polygon>
                <polygon id="Jowl" fill-opacity="0.700000048" fill="#FFFFFF" style="mix-blend-mode: overlay;" points="0 127.5 84 64 168 127.5 84 191"></polygon>
                <polygon id="Ears/Nose" fill="#FFFFFF" style="mix-blend-mode: soft-light;" points="0 0 84 191 168 0 84 63.6666667"></polygon>
                <path d="M0,0 L84,191 L0,31.0505464 L0,0 Z M168,0 L168,31.0505464 L84,191 L168,0 Z" id="Shadows" fill-opacity="0.25" fill="#000000" style="mix-blend-mode: overlay;"></path>
            </g>
        </g>
    </g>
</svg>